# This file uses centimeters as units for non-parametric coordinates.

mtllib ball_copper.mtl
g default
v 0.000000 1.000000 0.000000
v 0.395248 0.918574 0.000000
v -0.222786 0.918574 -0.326477
v -0.144097 0.918574 0.368045
v 0.567710 0.755723 -0.326477
v 0.495428 0.786825 0.368045
v -0.589668 0.755723 -0.284910
v -0.050324 0.755723 -0.652955
v 0.162095 0.786825 0.595509
v -0.510979 0.755723 0.409613
v 0.840353 0.461122 -0.284910
v 0.344925 0.674298 -0.652955
v 0.768071 0.492224 0.409613
v -0.643952 0.492224 -0.585696
v -0.733765 0.674298 0.083135
v -0.310619 0.492224 -0.813161
v 0.101404 0.492224 0.864542
v -0.571670 0.461122 0.678644
v 0.786069 0.197624 -0.585696
v 0.940533 0.329373 0.083135
v 0.479878 0.329373 -0.813161
v 0.707379 0.197624 0.678644
v -0.842332 0.147301 -0.518439
v -0.932145 0.329373 0.150394
v -0.175666 0.147301 -0.973367
v 0.374046 0.197624 0.906110
v -0.265479 0.329373 0.906110
v -0.831965 0.197624 0.518439
v 0.831965 -0.197624 -0.518439
v 0.986425 -0.065875 0.150394
v 0.219582 0.065875 -0.973367
v 0.842332 -0.147301 0.518439
v -0.707379 -0.197624 -0.678644
v -0.986425 0.065875 -0.150394
v -0.374046 -0.197624 -0.906110
v 0.175666 -0.147301 0.973367
v -0.219582 -0.065875 0.973367
v -0.786069 -0.197624 0.585696
v 0.571670 -0.461122 -0.678644
v 0.932145 -0.329373 -0.150394
v 0.265479 -0.329373 -0.906110
v 0.643952 -0.492224 0.585696
v -0.768071 -0.492224 -0.409613
v -0.940533 -0.329373 -0.083135
v -0.101404 -0.492224 -0.864542
v 0.310619 -0.492224 0.813161
v -0.479878 -0.329373 0.813161
v -0.840353 -0.461122 0.284910
v 0.510979 -0.755723 -0.409613
v 0.733765 -0.674298 -0.083135
v 0.589668 -0.755723 0.284910
v -0.495428 -0.786825 -0.368045
v -0.162095 -0.786825 -0.595509
v 0.050324 -0.755723 0.652955
v -0.344925 -0.674298 0.652955
v -0.567710 -0.755723 0.326477
v 0.144097 -0.918574 -0.368045
v 0.222786 -0.918574 0.326477
v -0.395248 -0.918574 -0.000000
v 0.000000 -1.000000 -0.000000
vt 0.753258 0.281928
vt 0.694636 0.348845
vt 0.617899 0.333882
vt 0.599784 0.252001
vt 0.658406 0.185083
vt 0.735143 0.200047
vt 0.694636 0.399450
vt 0.617899 0.435092
vt 0.541162 0.420129
vt 0.541162 0.369524
vt 0.475621 0.309671
vt 0.511851 0.237038
vt 0.482540 0.155157
vt 0.541162 0.088239
vt 0.629095 0.103202
vt 0.753258 0.127413
vt 0.687717 0.067561
vt 0.410080 0.300423
vt 0.380769 0.218542
vt 0.416999 0.145909
vt 0.435114 0.073276
vt 0.511851 0.037634
vt 0.570473 0.001992
vt 0.658406 0.016955
vt 0.243314 0.237038
vt 0.155381 0.252001
vt 0.096759 0.185083
vt 0.126070 0.103202
vt 0.214003 0.088239
vt 0.272625 0.155157
vt 0.214003 0.369524
vt 0.137266 0.333882
vt 0.279544 0.309671
vt 0.060529 0.348845
vt 0.001907 0.281928
vt 0.020022 0.200047
vt 0.001907 0.127413
vt 0.067448 0.067561
vt 0.096759 0.016955
vt 0.184692 0.001992
vt 0.243314 0.037634
vt 0.338166 0.145909
vt 0.320051 0.073276
vt 0.345085 0.300423
vt 0.374396 0.218542
vt 0.214003 0.420129
vt 0.137266 0.435092
vt 0.060529 0.399450
vt 0.784345 0.640500
vt 0.872277 0.640500
vt 0.910646 0.713133
vt 0.861082 0.785766
vt 0.773149 0.785766
vt 0.734780 0.713133
vt 0.752287 0.558619
vt 0.820407 0.508014
vt 0.894565 0.558619
vt 0.715240 0.821408
vt 0.641081 0.770803
vt 0.653158 0.703885
vt 0.621100 0.622004
vt 0.670664 0.549371
vt 0.657162 0.489518
vt 0.725282 0.438913
vt 0.806904 0.448161
vt 0.867561 0.438913
vt 0.941719 0.489518
vt 0.955221 0.549371
vt 0.565663 0.549371
vt 0.615228 0.622004
vt 0.583170 0.703885
vt 0.501547 0.713133
vt 0.451983 0.640500
vt 0.484041 0.558619
vt 0.595247 0.770803
vt 0.521088 0.821408
vt 0.463179 0.785766
vt 0.375246 0.785766
vt 0.325682 0.713133
vt 0.364050 0.640500
vt 0.341763 0.558619
vt 0.415921 0.508014
vt 0.429423 0.448161
vt 0.511046 0.438913
vt 0.579166 0.489518
vt 0.294609 0.489518
vt 0.368767 0.438913
vt 0.281106 0.549371
vt 0.157277 0.438913
vt 0.245210 0.457028
vt 0.275234 0.533765
vt 0.217325 0.592387
vt 0.129392 0.574272
vt 0.099368 0.497535
vt 0.227536 0.680320
vt 0.145913 0.716550
vt 0.085257 0.651009
vt 0.049605 0.961778
vt 0.059816 0.873845
vt 0.147749 0.855729
vt 0.191884 0.932467
vt 0.131227 0.998008
vt 0.001907 0.815223
vt 0.031930 0.738486
vt 0.119863 0.720371
vt 0.177773 0.778992
vn -0.040557 0.997408 -0.059434
vn 0.431478 0.900163 -0.059434
vn 0.543258 0.794613 -0.271036
vn 0.277190 0.697368 -0.660941
vn 0.021014 0.750143 -0.660941
vn -0.184953 0.944633 -0.271037
vn -0.623114 0.750143 -0.221394
vn -0.716508 0.697368 0.017151
vn -0.450440 0.794613 0.407056
vn -0.212649 0.900163 0.380114
vn 0.153029 0.742818 0.651769
vn 0.551121 0.742818 0.380114
vn 0.727832 0.551876 0.407055
vn 0.933799 0.357386 0.017152
vn 0.868869 0.442778 -0.221392
vn -0.289851 0.435453 -0.852272
vn -0.687943 0.435452 -0.580616
vn -0.522922 0.442778 0.728354
vn -0.324467 0.357386 0.875783
vn 0.113692 0.551876 0.826140
vn 0.804039 0.128087 -0.580615
vn 0.438361 0.285433 -0.852272
vn 0.439303 0.200041 0.875783
vn 0.655350 0.200041 0.728354
vn -0.816521 0.211894 -0.537023
vn -0.988612 0.114650 -0.097477
vn -0.953429 0.285433 0.097476
vn 0.269653 0.114649 -0.956108
vn -0.202382 0.211894 -0.956108
vn -0.833786 0.128089 0.537023
vn 0.988612 -0.114650 0.097477
vn 0.953429 -0.285433 -0.097476
vn 0.833786 -0.128089 -0.537023
vn 0.816521 -0.211894 0.537023
vn -0.439303 -0.200041 -0.875783
vn -0.655350 -0.200041 -0.728354
vn -0.269653 -0.114649 0.956108
vn 0.202382 -0.211894 0.956108
vn -0.804039 -0.128087 0.580615
vn -0.438361 -0.285433 0.852272
vn 0.522922 -0.442779 -0.728354
vn 0.324467 -0.357386 -0.875783
vn 0.289851 -0.435453 0.852272
vn 0.687943 -0.435452 0.580616
vn -0.727832 -0.551876 -0.407055
vn -0.933799 -0.357386 -0.017152
vn -0.868869 -0.442778 0.221392
vn -0.113692 -0.551876 -0.826140
vn 0.716508 -0.697368 -0.017152
vn 0.450440 -0.794613 -0.407056
vn 0.623114 -0.750143 0.221394
vn -0.153029 -0.742818 -0.651769
vn -0.551121 -0.742818 -0.380114
vn -0.277190 -0.697368 0.660941
vn -0.021014 -0.750143 0.660941
vn -0.543258 -0.794613 0.271036
vn 0.212649 -0.900163 -0.380114
vn 0.184953 -0.944633 0.271037
vn -0.431478 -0.900164 0.059434
vn 0.040557 -0.997408 0.059434
s 1
g copperBall
usemtl initialShadingGroup
f 1/49/1 2/50/2 5/51/3 12/52/4 8/53/5 3/54/6
f 1/49/1 3/54/6 7/60/7 15/61/8 10/62/9 4/55/10
f 4/55/10 9/56/11 6/57/12 2/50/2 1/49/1
f 6/44/12 13/33/13 20/25/14 11/30/15 5/42/3 2/45/2
f 8/53/5 16/58/16 14/59/17 7/60/7 3/54/6
f 10/62/9 18/63/18 27/64/19 17/65/20 9/56/11 4/55/10
f 5/42/3 11/30/15 19/29/21 21/41/22 12/43/4
f 6/57/12 9/56/11 17/65/20 26/66/23 22/67/24 13/68/13
f 7/1/7 14/2/17 23/3/25 34/4/26 24/5/27 15/6/8
f 8/89/5 12/90/4 21/91/22 31/92/28 25/93/29 16/94/16
f 10/16/9 15/6/8 24/5/27 28/15/30 18/17/18
f 20/25/14 30/26/31 40/27/32 29/28/33 19/29/21 11/30/15
f 22/31/24 32/32/34 30/26/31 20/25/14 13/33/13
f 14/2/17 16/7/16 25/8/29 35/9/35 33/10/36 23/3/25
f 27/98/19 37/99/37 36/100/38 26/101/23 17/102/20
f 28/15/30 38/14/39 47/22/40 37/23/37 27/24/19 18/17/18
f 29/28/33 39/38/41 41/39/42 31/40/28 21/41/22 19/29/21
f 22/31/24 26/46/23 36/47/38 46/48/43 42/34/44 32/32/34
f 23/3/25 33/10/36 43/11/45 44/12/46 34/4/26
f 34/4/26 44/12/46 48/13/47 38/14/39 28/15/30 24/5/27
f 25/93/29 31/92/28 41/95/42 45/96/48 35/97/35
f 40/27/32 50/36/49 49/37/50 39/38/41 29/28/33
f 30/26/31 32/32/34 42/34/44 51/35/51 50/36/49 40/27/32
f 33/86/36 35/87/35 45/83/48 53/82/52 52/81/53 43/88/45
f 36/100/38 37/99/37 47/103/40 55/104/54 54/105/55 46/106/43
f 48/13/47 56/20/56 55/21/54 47/22/40 38/14/39
f 49/69/50 57/74/57 53/82/52 45/83/48 41/84/42 39/85/41
f 42/75/44 46/76/43 54/77/55 58/72/58 51/71/51
f 52/18/53 59/19/59 56/20/56 48/13/47 44/12/46 43/11/45
f 49/69/50 50/70/49 51/71/51 58/72/58 60/73/60 57/74/57
f 52/81/53 53/82/52 57/74/57 60/73/60 59/80/59
f 54/77/55 55/78/54 56/79/56 59/80/59 60/73/60 58/72/58
