# This file uses centimeters as units for non-parametric coordinates.

mtllib ball_silver.mtl
g default
v 0.000000 -0.000000 -1.207942
v 0.807220 0.635051 -0.540208
v -0.308332 1.027538 -0.540208
v -0.997783 -0.000000 -0.540208
v -0.308332 -1.027538 -0.540208
v 0.807220 -0.635051 -0.540208
v 0.997783 -0.000000 0.540208
v 0.308332 1.027538 0.540208
v -0.807220 0.635051 0.540208
v -0.807220 -0.635051 0.540208
v 0.308332 -1.027538 0.540208
v 0.000000 -0.000000 1.207942
v -0.130718 0.435627 -0.741133
v 0.211506 0.704860 -0.458046
v 0.342225 0.269232 -0.741133
v 0.150940 0.503019 -0.692346
v -0.423013 -0.000000 -0.741133
v -0.553731 0.435627 -0.458046
v -0.395167 0.310883 -0.692346
v -0.130718 -0.435627 -0.741133
v -0.553731 -0.435627 -0.458046
v -0.395167 -0.310883 -0.692346
v 0.342225 -0.269232 -0.741133
v 0.211506 -0.704860 -0.458046
v 0.150940 -0.503019 -0.692346
v 0.684449 -0.000000 -0.458046
v 0.488453 -0.000000 -0.692346
v -0.000000 0.871254 0.000000
v 0.472943 0.704860 0.000000
v 0.244227 0.813902 -0.163441
v -0.765238 0.269232 0.000000
v -0.472943 0.704860 0.000000
v -0.639394 0.503019 -0.163441
v -0.472943 -0.704860 0.000000
v -0.765238 -0.269233 0.000000
v -0.639394 -0.503019 -0.163441
v 0.472943 -0.704860 0.000000
v 0.000000 -0.871254 0.000000
v 0.244227 -0.813902 -0.163441
v 0.765238 0.269232 0.000000
v 0.765238 -0.269232 0.000000
v 0.790334 -0.000000 -0.163441
v 0.553731 0.435627 0.458046
v 0.639394 0.503019 0.163441
v -0.211507 0.704860 0.458046
v -0.244227 0.813902 0.163441
v -0.684449 -0.000000 0.458046
v -0.790334 -0.000000 0.163441
v -0.211506 -0.704860 0.458046
v -0.244227 -0.813902 0.163441
v 0.553731 -0.435627 0.458046
v 0.639394 -0.503019 0.163441
v 0.130718 0.435627 0.741133
v 0.423013 0.000000 0.741133
v 0.395167 0.310883 0.692346
v -0.342225 0.269232 0.741133
v -0.150940 0.503019 0.692346
v -0.342225 -0.269232 0.741133
v -0.488453 -0.000000 0.692346
v 0.130718 -0.435627 0.741133
v -0.150940 -0.503019 0.692346
v 0.395167 -0.310883 0.692346
vt 1.000000 0.500000
vt 0.838104 0.676208
vt 0.088104 0.823792
vt 0.176208 0.500000
vt 0.088104 0.176208
vt 0.838104 0.323792
vt 0.676208 0.500000
vt 0.588104 0.823792
vt 0.338104 0.676208
vt 0.338104 0.323792
vt 0.588104 0.176208
vt 0.500000 0.500000
vt 0.030034 0.666667
vt 0.926208 0.800000
vt 0.926208 0.600000
vt 0.963104 0.695913
vt 0.088104 0.500000
vt 0.146174 0.666667
vt 0.088104 0.616140
vt 0.030034 0.333333
vt 0.146174 0.333333
vt 0.088104 0.383860
vt 0.926208 0.400000
vt 0.926208 0.200000
vt 0.963104 0.304087
vt 0.838104 0.500000
vt 0.896174 0.500000
vt 0.250000 1.000000
vt 0.750000 0.800000
vt 0.838104 0.883860
vt 0.250000 0.600000
vt 0.250000 0.800000
vt 0.213104 0.695913
vt 0.250000 0.200000
vt 0.250000 0.400000
vt 0.213104 0.304087
vt 0.750000 0.200000
vt 0.750000 1.000000
vt 0.838104 0.116140
vt 0.750000 0.600000
vt 0.750000 0.400000
vt 0.780034 0.500000
vt 0.646174 0.666667
vt 0.713104 0.695913
vt 0.426208 0.800000
vt 0.338104 0.883860
vt 0.338104 0.500000
vt 0.280034 0.500000
vt 0.426208 0.200000
vt 0.338104 0.116140
vt 0.646174 0.333333
vt 0.713104 0.304087
vt 0.530034 0.666667
vt 0.588104 0.500000
vt 0.588104 0.616140
vt 0.426208 0.600000
vt 0.463104 0.695913
vt 0.426208 0.400000
vt 0.396174 0.500000
vt 0.530034 0.333333
vt 0.463104 0.304087
vt 0.588104 0.383860
vt 1.030034 0.666667
vt 1.088104 0.823792
vt 1.088104 0.500000
vt 1.088104 0.616140
vt 1.030034 0.333333
vt 1.088104 0.383860
vt 1.088104 0.176208
vt 1.250000 1.000000
vn 0.531099 0.356354 -0.768730
vn 0.000000 0.000000 -1.000000
vn -0.206555 0.587091 -0.782726
vn 0.232638 0.661227 -0.713202
vn -0.142118 0.403941 -0.903678
vn -0.297330 0.845101 -0.444296
vn 0.395514 0.759634 -0.516261
vn 0.290908 0.492616 -0.820184
vn 0.165088 0.837279 -0.521257
vn 0.750379 0.503486 -0.428291
vn 0.368877 0.247507 -0.895919
vn 0.078641 0.559691 -0.824962
vn -0.649401 -0.000000 -0.760446
vn -0.595339 0.399458 -0.697141
vn -0.453565 0.000000 -0.891223
vn -0.907883 0.000000 -0.419223
vn -0.646911 0.570524 -0.505972
vn -0.414687 0.405074 -0.814831
vn -0.776022 0.386207 -0.498633
vn -0.540338 0.236877 -0.807418
vn -0.206555 -0.587091 -0.782726
vn -0.595339 -0.399458 -0.697141
vn -0.142118 -0.403941 -0.903678
vn -0.297330 -0.845101 -0.444296
vn -0.776022 -0.386207 -0.498633
vn -0.540338 -0.236877 -0.807418
vn -0.646911 -0.570524 -0.505972
vn -0.414687 -0.405075 -0.814831
vn 0.531099 -0.356354 -0.768730
vn 0.232638 -0.661227 -0.713202
vn 0.368877 -0.247507 -0.895919
vn 0.750379 -0.503486 -0.428291
vn 0.165088 -0.837279 -0.521257
vn 0.078641 -0.559691 -0.824962
vn 0.395514 -0.759634 -0.516261
vn 0.290907 -0.492616 -0.820184
vn 0.725957 -0.000000 -0.687740
vn 0.863456 -0.107530 -0.492830
vn 0.585600 -0.101273 -0.804249
vn 0.863456 0.107530 -0.492830
vn 0.585601 0.101273 -0.804249
vn 0.566004 0.818953 0.094629
vn 0.222221 0.966711 -0.126836
vn 0.064857 0.993177 0.096915
vn 0.431075 0.893540 -0.125545
vn -0.064857 0.993177 -0.096915
vn 0.297330 0.845101 0.444296
vn 0.662337 0.743315 -0.093764
vn 0.316404 0.899313 -0.301868
vn -0.662337 0.743315 0.093764
vn -0.876154 0.466883 -0.119894
vn -0.936168 0.339712 0.090479
vn -0.763021 0.634808 -0.121724
vn -0.968511 0.232133 -0.090003
vn -0.750379 0.503486 0.428291
vn -0.566004 0.818953 -0.094629
vn -0.794802 0.533293 -0.289634
vn -0.936167 -0.339712 0.090479
vn -0.763021 -0.634808 -0.121724
vn -0.662337 -0.743315 0.093764
vn -0.876154 -0.466883 -0.119894
vn -0.566004 -0.818953 -0.094629
vn -0.750379 -0.503486 0.428291
vn -0.968511 -0.232133 -0.090004
vn -0.794803 -0.533292 -0.289634
vn 0.064857 -0.993177 0.096915
vn 0.431074 -0.893540 -0.125545
vn 0.566004 -0.818953 0.094629
vn 0.222221 -0.966711 -0.126836
vn 0.662337 -0.743315 -0.093764
vn 0.297330 -0.845101 0.444296
vn -0.064857 -0.993177 -0.096915
vn 0.316404 -0.899313 -0.301868
vn 0.968511 -0.232133 0.090003
vn 0.988370 0.096169 -0.117798
vn 0.968511 0.232133 0.090003
vn 0.988370 -0.096169 -0.117798
vn 0.936167 0.339712 -0.090479
vn 0.907883 0.000000 0.419223
vn 0.936168 -0.339712 -0.090479
vn 0.959183 0.000000 -0.282786
vn 0.794803 0.533293 0.289634
vn 0.776022 0.386207 0.498633
vn 0.876154 0.466883 0.119894
vn 0.646911 0.570524 0.505972
vn 0.763021 0.634808 0.121724
vn -0.316404 0.899313 0.301868
vn -0.165088 0.837279 0.521257
vn -0.222221 0.966711 0.126836
vn -0.395514 0.759634 0.516261
vn -0.431075 0.893540 0.125545
vn -0.959183 -0.000000 0.282786
vn -0.863456 0.107530 0.492830
vn -0.988370 0.096169 0.117798
vn -0.863456 -0.107530 0.492830
vn -0.988370 -0.096169 0.117798
vn -0.316404 -0.899313 0.301868
vn -0.395514 -0.759634 0.516261
vn -0.431074 -0.893540 0.125545
vn -0.165088 -0.837279 0.521257
vn -0.222221 -0.966711 0.126836
vn 0.794803 -0.533292 0.289634
vn 0.646911 -0.570524 0.505972
vn 0.763021 -0.634808 0.121724
vn 0.776022 -0.386207 0.498633
vn 0.876154 -0.466883 0.119894
vn 0.453565 0.000000 0.891223
vn 0.414687 0.405074 0.814831
vn 0.142118 0.403941 0.903678
vn 0.540338 0.236877 0.807418
vn 0.206555 0.587091 0.782726
vn -0.000000 -0.000000 1.000000
vn 0.649401 -0.000000 0.760446
vn 0.595339 0.399458 0.697140
vn -0.290908 0.492616 0.820184
vn -0.368877 0.247507 0.895919
vn -0.078641 0.559691 0.824962
vn -0.531099 0.356354 0.768730
vn -0.232638 0.661227 0.713202
vn -0.585601 -0.101273 0.804249
vn -0.368877 -0.247507 0.895919
vn -0.585600 0.101273 0.804249
vn -0.531099 -0.356354 0.768730
vn -0.725957 -0.000000 0.687740
vn -0.078641 -0.559691 0.824962
vn 0.142118 -0.403941 0.903678
vn -0.290907 -0.492617 0.820184
vn 0.206555 -0.587091 0.782726
vn -0.232638 -0.661227 0.713202
vn 0.540338 -0.236877 0.807418
vn 0.414687 -0.405074 0.814831
vn 0.595339 -0.399458 0.697140
s 1
g silver1
usemtl initialShadingGroup
f 15/15/1 1/1/2 13/63/3 16/16/4
s 2
f 13/63/5 3/64/6 14/14/7 16/16/8
s 3
f 14/14/9 2/2/10 15/15/11 16/16/12
s 1
f 13/63/3 1/1/2 17/65/13 19/66/14
s 4
f 17/17/15 4/4/16 18/18/17 19/19/18
s 2
f 18/18/19 3/3/6 13/13/5 19/19/20
s 1
f 17/65/13 1/1/2 20/67/21 22/68/22
s 5
f 20/20/23 5/5/24 21/21/25 22/22/26
s 4
f 21/21/27 4/4/16 17/17/15 22/22/28
s 1
f 20/67/21 1/1/2 23/23/29 25/25/30
s 6
f 23/23/31 6/6/32 24/24/33 25/25/34
s 5
f 24/24/35 5/69/24 20/67/23 25/25/36
s 1
f 23/23/29 1/1/2 15/15/1 27/27/37
s 3
f 15/15/11 2/2/10 26/26/38 27/27/39
s 6
f 26/26/40 6/6/32 23/23/31 27/27/41
s 3
f 29/29/42 2/2/10 14/14/9 30/30/43
s 2
f 14/14/7 3/64/6 28/70/44 30/30/45
s 7
f 28/70/46 8/8/47 29/29/48 30/30/49
s 2
f 32/32/50 3/3/6 18/18/19 33/33/51
s 4
f 18/18/17 4/4/16 31/31/52 33/33/53
s 8
f 31/31/54 9/9/55 32/32/56 33/33/57
s 4
f 35/35/58 4/4/16 21/21/27 36/36/59
s 5
f 21/21/25 5/5/24 34/34/60 36/36/61
s 9
f 34/34/62 10/10/63 35/35/64 36/36/65
s 5
f 38/38/66 5/69/24 24/24/35 39/39/67
s 6
f 24/24/33 6/6/32 37/37/68 39/39/69
s 10
f 37/37/70 11/11/71 38/38/72 39/39/73
s 6
f 41/41/74 6/6/32 26/26/40 42/42/75
s 3
f 26/26/38 2/2/10 40/40/76 42/42/77
s 11
f 40/40/78 7/7/79 41/41/80 42/42/81
s 3
f 40/40/76 2/2/10 29/29/42 44/44/82
s 7
f 29/29/48 8/8/47 43/43/83 44/44/84
s 11
f 43/43/85 7/7/79 40/40/78 44/44/86
s 2
f 28/28/44 3/3/6 32/32/50 46/46/87
s 8
f 32/32/56 9/9/55 45/45/88 46/46/89
s 7
f 45/45/90 8/8/47 28/28/46 46/46/91
s 4
f 31/31/52 4/4/16 35/35/58 48/48/92
s 9
f 35/35/64 10/10/63 47/47/93 48/48/94
s 8
f 47/47/95 9/9/55 31/31/54 48/48/96
s 5
f 34/34/60 5/69/24 38/38/66 50/50/97
s 10
f 38/38/72 11/11/71 49/49/98 50/50/99
s 9
f 49/49/100 10/10/63 34/34/62 50/50/101
s 6
f 37/37/68 6/6/32 41/41/74 52/52/102
s 11
f 41/41/80 7/7/79 51/51/103 52/52/104
s 10
f 51/51/105 11/11/71 37/37/70 52/52/106
s 11
f 54/54/107 7/7/79 43/43/85 55/55/108
s 7
f 43/43/83 8/8/47 53/53/109 55/55/110
s 12
f 53/53/111 12/12/112 54/54/113 55/55/114
s 7
f 53/53/109 8/8/47 45/45/90 57/57/115
s 8
f 45/45/88 9/9/55 56/56/116 57/57/117
s 12
f 56/56/118 12/12/112 53/53/111 57/57/119
s 8
f 56/56/116 9/9/55 47/47/95 59/59/120
s 9
f 47/47/93 10/10/63 58/58/121 59/59/122
s 12
f 58/58/123 12/12/112 56/56/118 59/59/124
s 9
f 58/58/121 10/10/63 49/49/100 61/61/125
s 10
f 49/49/98 11/11/71 60/60/126 61/61/127
s 12
f 60/60/128 12/12/112 58/58/123 61/61/129
s 10
f 60/60/126 11/11/71 51/51/105 62/62/130
s 11
f 51/51/103 7/7/79 54/54/107 62/62/131
s 12
f 54/54/113 12/12/112 60/60/128 62/62/132
